# xmcd
#
# Track frame offsets:
# 150
# 20284
# 39080
# 57979
# 77932
# 91160
# 114207
# 134089
# 155771
# 176471
# 198609
# 218120
#
# Disc length: 3271 seconds
#
#
# Revision: 0
# Processed by: cddbd v1.5.2PL0 Copyright (c) Steve Scherf et al.
# Submitted via: FreeRIP 2.944 
#
DISCID=9d0cc50c
DTITLE=DIVERSOS - HALLEL FEST 2006
DYEAR=2006
DGENRE=CATÓLICA
TTITLE0=HALLEL FEST 2006 Ministério Nova Unção  Jaú- SP - A Solução
TTITLE1=HALLEL FEST 2006 Ministério Consagração - Betim MG - A voz do Pai
TTITLE2=HALLEL FEST 2006 Grupo de Oração Dom Bosco Londrina Pr - Ame mais e mais
TTITLE3=HALLEL FEST 2006 Grupo Laos Deo Curitiba PR -Cura-me
TTITLE4=HALLEL FEST 2006 Ivo Kissmann Capasso Sao Paulo SP - Deixe essa tristeza prá lá
TTITLE5=HALLEL FEST 2006 Banda Amor Eterno Uberlandia MG - Eucentrismo
TTITLE6=HALLEL FEST 2006 Fabricia Pereira Carvalho Betim MG - Louvor e Glória
TTITLE7=HALLEL FEST 2006 Banda Ichthus Pindamonhangaba SP - Mãe Admiável
TTITLE8=HALLEL FEST 2006 Banda Vida Nova Presidente Prudente SP - Me deixa Te Amar
TTITLE9=HALLEL FEST 2006 Ministério de Música Saliah Jau SP - Olha pra mim
TTITLE10=HALLEL FEST 2006 Aline Cristina da Silva Costa Bataguassu SP- Perfeito amor
TTITLE11=HALLEL FEST 2006 Mariana Pelózio São Paulo SP - Quero Adorar
EXTD=Festival HALLEL 2006 Franca-SP este cd é fruto inspirado por Deus há alguns anos. Nesta terceira etapa do Hallel  esta aqui amostra dos talentos vencedores do festival. Parabéns a voces vencedores ou não.
EXTT0=
EXTT1=
EXTT2=
EXTT3=
EXTT4=
EXTT5=
EXTT6=
EXTT7=
EXTT8=
EXTT9=
EXTT10=
EXTT11=
PLAYORDER=
